<svg xmlns="http://www.w3.org/2000/svg" width="64" height="64">
    <path d="m27.552 33.984.128-.128 1.632-1.76.064-.096-.064-.096c-.512-.608-1.088-1.184-1.6-1.76l-.16-.128c-7.008-7.712-11.456-12.32-16.096-13.632A10.6 10.6 0 0 0 8.608 16C3.808 16 0 20 0 24.8c0 2.016.608 4 1.76 5.6.416.576.896 1.12 1.44 1.6a9.7 9.7 0 0 0-1.44 1.6C.608 35.2 0 37.248 0 39.392 0 44.192 4 48 8.8 48c.896 0 1.792-.128 2.656-.352C16 46.4 20.48 41.76 27.552 33.984M20.704 32c-2.88 3.104-5.088 5.408-7.072 7.072C10.976 41.312 9.6 41.6 8.8 41.6c-1.44 0-2.4-1.12-2.4-2.208 0-1.216.448-2.08 1.056-2.592L12.8 32l-5.344-4.8c-.64-.544-1.056-1.44-1.056-2.4 0-1.44 1.12-2.4 2.208-2.4.992 0 2.368.32 5.024 2.56 1.984 1.632 4.192 3.936 7.072 7.04m-4.32 20.576A10.3 10.3 0 0 0 16 55.392c0 4.8 4 8.608 8.8 8.608 2.016 0 4-.608 5.6-1.76A9.7 9.7 0 0 0 32 60.8a9.7 9.7 0 0 0 1.6 1.44c1.6 1.152 3.648 1.76 5.792 1.76 4.8 0 8.608-4 8.608-8.8 0-.896-.128-1.792-.352-2.656C46.4 48 41.76 43.52 33.984 36.448l-.128-.128-1.76-1.6-.096-.096-.096.096-1.76 1.6-.128.096c-7.712 7.04-12.32 11.488-13.632 16.16M32 43.296c3.104 2.88 5.408 5.088 7.072 7.072C41.312 53.024 41.6 54.4 41.6 55.2c0 1.44-1.12 2.4-2.208 2.4-1.216 0-2.08-.448-2.592-1.056L32 51.2l-4.8 5.344c-.544.64-1.44 1.056-2.4 1.056-1.44 0-2.4-1.12-2.4-2.208 0-.992.32-2.368 2.56-5.024 1.632-1.984 3.936-4.192 7.04-7.072m4.448-9.312c7.04 7.712 11.456 12.32 16.128 13.632.928.256 1.824.384 2.816.384 4.8 0 8.608-4 8.608-8.8 0-2.016-.608-4-1.76-5.6A9.7 9.7 0 0 0 60.8 32a9.7 9.7 0 0 0 1.44-1.6c1.152-1.6 1.76-3.616 1.76-5.792 0-4.8-4-8.608-8.8-8.608-.896 0-1.792.128-2.656.352C48 17.6 43.52 22.24 36.448 30.016l-.096.128L34.656 32l1.696 1.856zM43.328 32c2.848-3.104 5.088-5.408 7.04-7.072C53.056 22.688 54.4 22.4 55.2 22.4c1.44 0 2.4 1.12 2.4 2.208 0 1.216-.448 2.08-1.056 2.592L51.2 32l5.344 4.8a3.23 3.23 0 0 1 1.056 2.4c0 1.44-1.12 2.4-2.208 2.4-.992 0-2.368-.32-5.024-2.56-1.952-1.632-4.192-3.936-7.04-7.04m-9.344-4.416c7.712-7.04 12.32-11.488 13.632-16.128.256-.928.384-1.856.384-2.848C48 3.808 44 0 39.2 0c-2.016 0-4 .608-5.6 1.76A9.7 9.7 0 0 0 32 3.2a9.7 9.7 0 0 0-1.6-1.44C28.8.608 26.784 0 24.608 0 19.808 0 16 4 16 8.8c0 .896.128 1.792.352 2.656C17.6 16 22.24 20.48 30.016 27.584l.128.096 1.76 1.6.096.096.096-.064 1.792-1.632.096-.128M32 20.704c-3.104-2.88-5.408-5.088-7.072-7.072C22.688 10.976 22.4 9.6 22.4 8.8c0-1.44 1.12-2.4 2.208-2.4 1.216 0 2.08.448 2.592 1.056L32 12.8l4.8-5.344A3.23 3.23 0 0 1 39.2 6.4c1.44 0 2.4 1.12 2.4 2.208 0 .992-.32 2.368-2.56 5.024-1.632 1.984-3.936 4.192-7.04 7.072" style="fill:#009e60;fill-opacity:1;stroke-width:3.19999"/>
</svg>
