<svg xmlns="http://www.w3.org/2000/svg" width="64" height="64">
    <rect width="64" height="64" rx="15" ry="15" style="fill:#009e60;fill-opacity:1;stroke:none"/>
    <path d="m28.386 33.612.104-.104 1.326-1.43.052-.078-.052-.078c-.416-.494-.884-.962-1.3-1.43l-.13-.104c-5.694-6.266-9.308-10.01-13.078-11.076A8.6 8.6 0 0 0 12.994 19C9.094 19 6 22.25 6 26.15c0 1.638.494 3.25 1.43 4.55.338.468.728.91 1.17 1.3-.442.39-.832.832-1.17 1.3C6.494 34.6 6 36.264 6 38.006 6 41.906 9.25 45 13.15 45c.728 0 1.456-.104 2.158-.286C19 43.7 22.64 39.93 28.386 33.612M22.822 32c-2.34 2.522-4.134 4.394-5.746 5.746-2.158 1.82-3.276 2.054-3.926 2.054-1.17 0-1.95-.91-1.95-1.794 0-.988.364-1.69.858-2.106L16.4 32l-4.342-3.9c-.52-.442-.858-1.17-.858-1.95 0-1.17.91-1.95 1.794-1.95.806 0 1.924.26 4.082 2.08 1.612 1.326 3.406 3.198 5.746 5.72m-3.51 16.718A8.4 8.4 0 0 0 19 51.006c0 3.9 3.25 6.994 7.15 6.994 1.638 0 3.25-.494 4.55-1.43.468-.338.91-.728 1.3-1.17.39.442.832.832 1.3 1.17 1.3.936 2.964 1.43 4.706 1.43 3.9 0 6.994-3.25 6.994-7.15 0-.728-.104-1.456-.286-2.158C43.7 45 39.93 41.36 33.612 35.614l-.104-.104-1.43-1.3-.078-.078-.078.078-1.43 1.3-.104.078c-6.266 5.72-10.01 9.334-11.076 13.13M32 41.178c2.522 2.34 4.394 4.134 5.746 5.746 1.82 2.158 2.054 3.276 2.054 3.926 0 1.17-.91 1.95-1.794 1.95-.988 0-1.69-.364-2.106-.858L32 47.6l-3.9 4.342c-.442.52-1.17.858-1.95.858-1.17 0-1.95-.91-1.95-1.794 0-.806.26-1.924 2.08-4.082 1.326-1.612 3.198-3.406 5.72-5.746m3.614-7.566c5.72 6.266 9.308 10.01 13.104 11.076a8.4 8.4 0 0 0 2.288.312c3.9 0 6.994-3.25 6.994-7.15 0-1.638-.494-3.25-1.43-4.55A8 8 0 0 0 55.4 32c.442-.39.832-.832 1.17-1.3.936-1.3 1.43-2.938 1.43-4.706 0-3.9-3.25-6.994-7.15-6.994-.728 0-1.456.104-2.158.286C45 20.3 41.36 24.07 35.614 30.388l-.078.104L34.158 32l1.378 1.508zM41.204 32c2.314-2.522 4.134-4.394 5.72-5.746 2.184-1.82 3.276-2.054 3.926-2.054 1.17 0 1.95.91 1.95 1.794 0 .988-.364 1.69-.858 2.106L47.6 32l4.342 3.9c.52.468.858 1.17.858 1.95 0 1.17-.91 1.95-1.794 1.95-.806 0-1.924-.26-4.082-2.08-1.586-1.326-3.406-3.198-5.72-5.72m-7.592-3.588c6.266-5.72 10.01-9.334 11.076-13.104A8.6 8.6 0 0 0 45 12.994C45 9.094 41.75 6 37.85 6c-1.638 0-3.25.494-4.55 1.43-.468.338-.91.728-1.3 1.17a8 8 0 0 0-1.3-1.17C29.4 6.494 27.762 6 25.994 6 22.094 6 19 9.25 19 13.15c0 .728.104 1.456.286 2.158C20.3 19 24.07 22.64 30.388 28.412l.104.078 1.43 1.3.078.078.078-.052 1.456-1.326.078-.104M32 22.822c-2.522-2.34-4.394-4.134-5.746-5.746-1.82-2.158-2.054-3.276-2.054-3.926 0-1.17.91-1.95 1.794-1.95.988 0 1.69.364 2.106.858L32 16.4l3.9-4.342a2.63 2.63 0 0 1 1.95-.858c1.17 0 1.95.91 1.95 1.794 0 .806-.26 1.924-2.08 4.082-1.326 1.612-3.198 3.406-5.72 5.746" style="fill:#fff;fill-opacity:1;stroke-width:2.59999"/>
</svg>
