<?xml version="1.0" encoding="UTF-8" standalone="no"?>
<svg
   width="64"
   height="64"
   viewBox="0 0 64 64"
   fill="#0d98ba"
   version="1.1"
   id="svg1"
   sodipodi:docname="contact.svg"
   inkscape:version="1.3.2 (091e20e, 2023-11-25)"
   xmlns:inkscape="http://www.inkscape.org/namespaces/inkscape"
   xmlns:sodipodi="http://sodipodi.sourceforge.net/DTD/sodipodi-0.dtd"
   xmlns="http://www.w3.org/2000/svg"
   xmlns:svg="http://www.w3.org/2000/svg">
  <defs
     id="defs1" />
  <sodipodi:namedview
     id="namedview1"
     pagecolor="#ffffff"
     bordercolor="#000000"
     borderopacity="0.25"
     inkscape:showpageshadow="2"
     inkscape:pageopacity="0.0"
     inkscape:pagecheckerboard="0"
     inkscape:deskcolor="#d1d1d1"
     inkscape:zoom="14.125"
     inkscape:cx="24"
     inkscape:cy="24"
     inkscape:window-width="1392"
     inkscape:window-height="997"
     inkscape:window-x="1777"
     inkscape:window-y="25"
     inkscape:window-maximized="0"
     inkscape:current-layer="svg1" />
  <g
     id="g1"
     transform="matrix(1.4578588,0,0,1.4578558,-3.0615035,-3.0515394)"
     style="fill:#0000ff;fill-opacity:1">
    <path
       d="M 46,24 A 22,22 0 0 1 2.1,26 h 25.1 l -4.6,4.6 a 1.9,1.9 0 0 0 0.2,3 2,2 0 0 0 2.7,-0.3 l 7.9,-7.9 a 1.9,1.9 0 0 0 0,-2.8 l -7.9,-8 a 2.3,2.3 0 0 0 -2.7,-0.3 2,2 0 0 0 -0.2,3.1 L 27.2,22 H 2.1 A 22,22 0 0 1 46,24 Z"
       id="path1"
       style="fill:#0000ff;fill-opacity:1" />
  </g>
</svg>
