<?xml version="1.0" encoding="UTF-8" standalone="no"?>
<svg
   width="64"
   height="64"
   viewBox="0 0 64 64"
   fill="#fff"
   version="1.1"
   id="svg2"
   sodipodi:docname="contact-tile.svg"
   inkscape:version="1.3.2 (091e20e, 2023-11-25)"
   xmlns:inkscape="http://www.inkscape.org/namespaces/inkscape"
   xmlns:sodipodi="http://sodipodi.sourceforge.net/DTD/sodipodi-0.dtd"
   xmlns="http://www.w3.org/2000/svg"
   xmlns:svg="http://www.w3.org/2000/svg">
  <defs
     id="defs2" />
  <sodipodi:namedview
     id="namedview2"
     pagecolor="#ffffff"
     bordercolor="#000000"
     borderopacity="0.25"
     inkscape:showpageshadow="2"
     inkscape:pageopacity="0.0"
     inkscape:pagecheckerboard="0"
     inkscape:deskcolor="#d1d1d1"
     inkscape:zoom="10.59375"
     inkscape:cx="32"
     inkscape:cy="32"
     inkscape:window-width="1392"
     inkscape:window-height="997"
     inkscape:window-x="1733"
     inkscape:window-y="25"
     inkscape:window-maximized="0"
     inkscape:current-layer="svg2" />
  <g
     id="g1"
     style="fill:#0000ff;fill-opacity:1">
    <rect
       width="64"
       height="64"
       rx="15"
       ry="15"
       fill="#0D98BA"
       id="rect1"
       style="fill:#0000ff;fill-opacity:1" />
  </g>
  <g
     id="g2"
     transform="translate(8,8.0005383)"
     style="stroke:#ffffff;stroke-opacity:1">
    <path
       d="M 8,9.7 A 2,2 0 0 1 8.6,8.3 21.6,21.6 0 0 1 24,2 22,22 0 0 1 24,46 21.6,21.6 0 0 1 8.6,39.7 a 2,2 0 1 1 2.8,-2.8 18,18 0 1 0 0,-25.8 1.9,1.9 0 0 1 -2.8,0 A 2,2 0 0 1 8,9.7 Z"
       id="path1"
       style="stroke:#ffffff;stroke-opacity:1" />
    <path
       d="m 33.4,22.6 -7.9,-8 a 2.1,2.1 0 0 0 -2.7,-0.2 1.9,1.9 0 0 0 -0.2,3 L 27.2,22 H 4 a 2,2 0 0 0 -2,2 v 0 a 2,2 0 0 0 2,2 h 23.2 l -4.6,4.6 a 1.9,1.9 0 0 0 0.2,3 2.1,2.1 0 0 0 2.7,-0.2 l 7.9,-8 a 1.9,1.9 0 0 0 0,-2.8 z"
       id="path2"
       style="stroke:#ffffff;stroke-opacity:1" />
  </g>
</svg>
