<svg xmlns="http://www.w3.org/2000/svg" width="64" height="64" fill="#fff">
    <rect width="64" height="64" fill="#0D98BA" rx="15" ry="15" style="fill:#00f;fill-opacity:1"/>
    <g style="stroke:#fff;stroke-opacity:1">
        <path d="M8 9.7a2 2 0 0 1 .6-1.4A21.6 21.6 0 0 1 24 2a22 22 0 0 1 0 44 21.6 21.6 0 0 1-15.4-6.3 2 2 0 1 1 2.8-2.8 18 18 0 1 0 0-25.8 1.9 1.9 0 0 1-2.8 0A2 2 0 0 1 8 9.7Z" style="stroke:#fff;stroke-opacity:1" transform="translate(8 8)"/>
        <path d="m33.4 22.6-7.9-8a2.1 2.1 0 0 0-2.7-.2 1.9 1.9 0 0 0-.2 3l4.6 4.6H4a2 2 0 0 0-2 2 2 2 0 0 0 2 2h23.2l-4.6 4.6a1.9 1.9 0 0 0 .2 3 2.1 2.1 0 0 0 2.7-.2l7.9-8a1.9 1.9 0 0 0 0-2.8z" style="stroke:#fff;stroke-opacity:1" transform="translate(8 8)"/>
    </g>
</svg>
