<?xml version="1.0" encoding="UTF-8" standalone="no"?>
<svg
   viewBox="0 0 64 64"
   width="64"
   height="64"
   fill="currentColor"
   style="overflow:visible"
   version="1.1"
   sodipodi:docname="download-tile.svg"
   inkscape:version="1.3.2 (091e20e, 2023-11-25)"
   xmlns:inkscape="http://www.inkscape.org/namespaces/inkscape"
   xmlns:sodipodi="http://sodipodi.sourceforge.net/DTD/sodipodi-0.dtd"
   xmlns="http://www.w3.org/2000/svg"
   xmlns:svg="http://www.w3.org/2000/svg">
  <defs
     id="defs2" />
  <sodipodi:namedview
     id="namedview2"
     pagecolor="#ffffff"
     bordercolor="#000000"
     borderopacity="0.25"
     inkscape:showpageshadow="2"
     inkscape:pageopacity="0.0"
     inkscape:pagecheckerboard="0"
     inkscape:deskcolor="#d1d1d1"
     inkscape:zoom="10.625"
     inkscape:cx="32"
     inkscape:cy="32.047059"
     inkscape:window-width="1392"
     inkscape:window-height="942"
     inkscape:window-x="1753"
     inkscape:window-y="25"
     inkscape:window-maximized="0"
     inkscape:current-layer="svg2" />
  <rect
     style="fill:#0476d0;fill-opacity:1;stroke:none"
     id="rect2"
     width="64"
     height="64"
     x="0"
     y="0"
     rx="15"
     ry="15" />
  <path
     d="M 13.899875,53.711489 A 5.9998749,5.9999274 0 0 1 7.9,47.711562 v -8.571325 a 2.571375,2.5713975 0 0 1 5.14275,0 v 8.571325 c 0,0.473137 0.383992,0.857133 0.857125,0.857133 h 35.999249 a 0.85712497,0.85713248 0 0 0 0.857126,-0.857133 v -8.571325 a 2.571375,2.5713975 0 0 1 5.14275,0 v 8.571325 a 5.9998749,5.9999274 0 0 1 -5.999876,5.999927 z"
     id="path1"
     style="fill:#ffffff;fill-opacity:1;stroke-width:3.42851" />
  <path
     d="M 29.328126,32.074038 V 12.56913 a 2.571375,2.5713974 0 0 1 5.142748,0 v 19.504908 l 6.754147,-6.750776 a 2.5697746,2.569797 0 1 1 3.634208,3.634241 L 33.716605,40.100226 a 2.5679465,2.567969 0 0 1 -3.63421,0 L 18.93977,28.957503 a 2.5697747,2.5697971 0 1 1 3.63421,-3.634241 z"
     id="path2"
     style="fill:#ffffff;fill-opacity:1;stroke-width:3.42851" />
</svg>
