<svg xmlns="http://www.w3.org/2000/svg" width="64" height="64" fill="currentColor" style="overflow:visible">
    <path d="M8 61.184a8 8 0 0 1-8-8V41.755a3.429 3.429 0 0 1 6.857 0v11.429c0 .63.512 1.143 1.143 1.143h48a1.143 1.143 0 0 0 1.143-1.143V41.755a3.429 3.429 0 0 1 6.857 0v11.429a8 8 0 0 1-8 8Z" style="fill:#0476d0;fill-opacity:1;stroke-width:4.57143"/>
    <path d="M28.571 32.334V6.327a3.429 3.429 0 0 1 6.858 0v26.007l9.005-9.001a3.426 3.426 0 1 1 4.846 4.845L34.423 43.035a3.424 3.424 0 0 1-4.846 0L14.72 28.178a3.426 3.426 0 1 1 4.846-4.845z" style="fill:#0476d0;fill-opacity:1;stroke-width:4.57143"/>
</svg>
