<svg xmlns="http://www.w3.org/2000/svg" width="64" height="64" fill="currentColor" style="overflow:visible">
    <rect width="64" height="64" rx="15" ry="15" style="fill:#0476d0;fill-opacity:1;stroke:none"/>
    <path d="M13.9 53.711a6 6 0 0 1-6-6v-8.57a2.571 2.571 0 0 1 5.143 0v8.57c0 .474.384.858.857.858h36a.857.857 0 0 0 .856-.857V39.14a2.571 2.571 0 0 1 5.143 0v8.572a6 6 0 0 1-6 6z" style="fill:#fff;fill-opacity:1;stroke-width:3.42851"/>
    <path d="M29.328 32.074V12.569a2.571 2.571 0 0 1 5.143 0v19.505l6.754-6.75a2.57 2.57 0 1 1 3.634 3.634L33.717 40.1a2.57 2.57 0 0 1-3.635 0L18.94 28.958a2.57 2.57 0 1 1 3.634-3.635z" style="fill:#fff;fill-opacity:1;stroke-width:3.42851"/>
</svg>
