<?xml version="1.0" encoding="UTF-8" standalone="no"?>
<svg
   viewBox="0 0 64 64"
   width="64"
   height="64"
   fill="currentColor"
   style="overflow:visible"
   version="1.1"
   sodipodi:docname="download.svg"
   inkscape:version="1.3.2 (091e20e, 2023-11-25)"
   xmlns:inkscape="http://www.inkscape.org/namespaces/inkscape"
   xmlns:sodipodi="http://sodipodi.sourceforge.net/DTD/sodipodi-0.dtd"
   xmlns="http://www.w3.org/2000/svg"
   xmlns:svg="http://www.w3.org/2000/svg">
  <defs
     id="defs2" />
  <sodipodi:namedview
     id="namedview2"
     pagecolor="#ffffff"
     bordercolor="#000000"
     borderopacity="0.25"
     inkscape:showpageshadow="2"
     inkscape:pageopacity="0.0"
     inkscape:pagecheckerboard="0"
     inkscape:deskcolor="#d1d1d1"
     inkscape:zoom="10.625"
     inkscape:cx="32"
     inkscape:cy="32"
     inkscape:window-width="1392"
     inkscape:window-height="997"
     inkscape:window-x="1753"
     inkscape:window-y="25"
     inkscape:window-maximized="0"
     inkscape:current-layer="svg2" />
  <path
     d="M 8,61.184 A 8,7.9999921 0 0 1 0,53.184008 v -11.42856 a 3.4285715,3.4285681 0 0 1 6.8571429,0 v 11.42856 c 0,0.630856 0.512,1.142856 1.1428571,1.142856 h 48 a 1.1428571,1.142856 0 0 0 1.142857,-1.142856 v -11.42856 a 3.4285715,3.4285681 0 0 1 6.857143,0 v 11.42856 A 8,7.9999921 0 0 1 56,61.184 Z"
     id="path1"
     style="fill:#0476d0;fill-opacity:1;stroke-width:4.57143" />
  <path
     d="M 28.571429,32.333744 V 6.3269118 a 3.4285714,3.428568 0 0 1 6.857142,0 V 32.333744 L 44.434286,23.33261 A 3.4264374,3.426434 0 1 1 49.28,28.178319 L 34.422857,43.035447 a 3.424,3.4239966 0 0 1 -4.845714,0 L 14.72,28.178319 a 3.4264374,3.426434 0 1 1 4.845714,-4.845709 z"
     id="path2"
     style="fill:#0476d0;fill-opacity:1;stroke-width:4.57143" />
</svg>
