<?xml version="1.0" encoding="UTF-8" standalone="no"?>
<svg
   width="64"
   height="64"
   viewBox="0 0 24 24"
   fill="none"
   version="1.1"
   id="svg10"
   sodipodi:docname="history-tile.svg"
   inkscape:version="1.1.2 (0a00cf5339, 2022-02-04)"
   xmlns:inkscape="http://www.inkscape.org/namespaces/inkscape"
   xmlns:sodipodi="http://sodipodi.sourceforge.net/DTD/sodipodi-0.dtd"
   xmlns="http://www.w3.org/2000/svg"
   xmlns:svg="http://www.w3.org/2000/svg">
  <defs
     id="defs14" />
  <sodipodi:namedview
     id="namedview12"
     pagecolor="#ffffff"
     bordercolor="#666666"
     borderopacity="1.0"
     inkscape:pageshadow="2"
     inkscape:pageopacity="0.0"
     inkscape:pagecheckerboard="0"
     showgrid="false"
     inkscape:zoom="12.21875"
     inkscape:cx="31.959079"
     inkscape:cy="31.959079"
     inkscape:window-width="1850"
     inkscape:window-height="1016"
     inkscape:window-x="0"
     inkscape:window-y="0"
     inkscape:window-maximized="1"
     inkscape:current-layer="path6" />
  <rect
     style="fill:#000090;stroke-width:0.375"
     id="rect883"
     width="24"
     height="24"
     x="0"
     y="0"
     rx="5.625"
     ry="5.625" />
  <g
     id="path6">
    <path
       style="color:#000000;fill:#000090;stroke-width:2.6676;stroke-linecap:round;stroke-linejoin:round;-inkscape-stroke:none"
       d="m 12.004176,7.7481433 v 5.3351777 h 5.335187"
       id="path1238" />
    <g
       id="g1727"
       transform="matrix(0.78125127,0,0,0.78125127,2.2502,2.7371488)">
      <g
         id="path2">
        <path
           style="color:#000000;fill:#000090;stroke-width:2.6676;stroke-linecap:round;stroke-linejoin:round;-inkscape-stroke:none"
           d="m 6.2806509,18.806946 c 3.7503271,3.75034 9.8308721,3.75034 13.5811891,0 3.750317,-3.75034 3.750317,-9.8308911 0,-13.5812523 -3.750317,-3.7503612 -9.830862,-3.7503612 -13.5811891,0 C 4.4042761,7.1020801 3.4666916,9.5617555 3.4678973,12.021079 l -2.13e-5,2.129286"
           id="path1491" />
        <path
           style="color:#000000;fill:#ffffff;fill-opacity:1;stroke-linecap:round;stroke-linejoin:round;-inkscape-stroke:none"
           d="m 13.070313,1.0878906 c -2.801858,0 -5.6024044,1.0652752 -7.7324224,3.1953125 -2.13139,2.1314032 -3.2044971,4.939529 -3.203125,7.7382809 v 2.128907 A 1.3338,1.3338 0 0 0 3.46875,15.484375 1.3338,1.3338 0 0 0 4.8007812,14.150391 v -2.128907 a 1.3339333,1.3339333 0 0 0 0,-0.002 C 4.799742,9.8996415 5.6032536,7.7893346 7.2246094,6.1679687 c 3.2406106,-3.2406401 8.4527596,-3.2406381 11.6933596,0 3.240605,3.2406437 3.240601,8.4546913 0,11.6953123 -3.240599,3.240619 -8.45275,3.240621 -11.6933596,0 a 1.3338,1.3338 0 0 0 -1.8867188,0 1.3338,1.3338 0 0 0 0,1.886719 c 4.2600374,4.260052 11.2067684,4.260054 15.4667964,0 4.260026,-4.260052 4.260022,-11.2067256 0,-15.4667969 C 18.674674,2.1531647 15.87217,1.0878907 13.070313,1.0878906 Z"
           id="path1493" />
      </g>
      <g
         id="path4"
         style="fill:#ffffff;fill-opacity:1">
        <path
           style="color:#000000;fill:#ffffff;fill-opacity:1;stroke-width:2.6676;stroke-linecap:round;stroke-linejoin:round;-inkscape-stroke:none"
           d="m 1.333801,12.016277 2.134075,2.134088 2.134075,-2.134088"
           id="path1592" />
        <path
           style="color:#000000;fill:#ffffff;fill-opacity:1;stroke-linecap:round;stroke-linejoin:round;-inkscape-stroke:none"
           d="m 1.3339844,10.681641 a 1.3338,1.3338 0 0 0 -0.9433594,0.390625 1.3338,1.3338 0 0 0 0,1.886718 l 2.1347656,2.134766 a 1.3339333,1.3339333 0 0 0 1.8847656,0 l 2.1347657,-2.134766 a 1.3338,1.3338 0 0 0 0,-1.886718 1.3338,1.3338 0 0 0 -1.8867188,0 L 3.46875,12.263672 2.2773438,11.072266 A 1.3338,1.3338 0 0 0 1.3339844,10.681641 Z"
           id="path1594" />
      </g>
      <path
         style="color:#000000;fill:#ffffff;fill-opacity:1;stroke:none;stroke-linecap:round;stroke-linejoin:round;stroke-opacity:1;-inkscape-stroke:none"
         d="m 12.003906,6.4140625 a 1.3338,1.3338 0 0 0 -1.333984,1.3339844 v 5.3359371 a 1.3339333,1.3339333 0 0 0 1.333984,1.333985 h 5.335938 A 1.3338,1.3338 0 0 0 18.673828,13.083984 1.3338,1.3338 0 0 0 17.339844,11.75 H 13.337891 V 7.7480469 A 1.3338,1.3338 0 0 0 12.003906,6.4140625 Z"
         id="path1240" />
    </g>
  </g>
</svg>
