<svg xmlns="http://www.w3.org/2000/svg" width="64" height="64" fill="none" viewBox="0 0 24 24">
    <rect width="24" height="24" rx="5.625" ry="5.625" style="fill:#000090;stroke-width:.375"/>
    <path d="M12.004 7.748v5.335h5.335" style="color:#000;fill:#000090;stroke-width:2.6676;stroke-linecap:round;stroke-linejoin:round;-inkscape-stroke:none"/>
    <path d="M6.28 18.807A9.603 9.603 0 1 0 19.863 5.226 9.603 9.603 0 0 0 3.468 12.02v2.13" style="color:#000;fill:#000090;stroke-width:2.6676;stroke-linecap:round;stroke-linejoin:round;-inkscape-stroke:none" transform="translate(2.25 2.737)scale(.78125)"/>
    <path d="M13.07 1.088a10.9 10.9 0 0 0-7.732 3.195 10.92 10.92 0 0 0-3.203 7.738v2.13a1.334 1.334 0 0 0 1.334 1.333A1.334 1.334 0 0 0 4.8 14.15v-2.13a8.23 8.23 0 0 1 2.424-5.851 8.25 8.25 0 0 1 11.693 0 8.25 8.25 0 0 1 0 11.695 8.25 8.25 0 0 1-11.693 0 1.334 1.334 0 0 0-1.887 0 1.334 1.334 0 0 0 0 1.887c4.26 4.26 11.207 4.26 15.467 0s4.26-11.207 0-15.467a10.9 10.9 0 0 0-7.735-3.195" style="color:#000;fill:#fff;fill-opacity:1;stroke-linecap:round;stroke-linejoin:round;-inkscape-stroke:none" transform="translate(2.25 2.737)scale(.78125)"/>
    <g style="fill:#fff;fill-opacity:1">
        <path d="m1.334 12.016 2.134 2.134 2.134-2.134" style="color:#000;fill:#fff;fill-opacity:1;stroke-width:2.6676;stroke-linecap:round;stroke-linejoin:round;-inkscape-stroke:none" transform="translate(2.25 2.737)scale(.78125)"/>
        <path d="M1.334 10.682a1.33 1.33 0 0 0-.943.39 1.334 1.334 0 0 0 0 1.887l2.134 2.135a1.334 1.334 0 0 0 1.885 0l2.135-2.135a1.334 1.334 0 0 0 0-1.887 1.334 1.334 0 0 0-1.887 0l-1.19 1.192-1.19-1.192a1.33 1.33 0 0 0-.944-.39" style="color:#000;fill:#fff;fill-opacity:1;stroke-linecap:round;stroke-linejoin:round;-inkscape-stroke:none" transform="translate(2.25 2.737)scale(.78125)"/>
    </g>
    <path d="M12.004 6.414a1.334 1.334 0 0 0-1.334 1.334v5.336a1.334 1.334 0 0 0 1.334 1.334h5.336a1.334 1.334 0 0 0 1.334-1.334 1.334 1.334 0 0 0-1.334-1.334h-4.002V7.748a1.334 1.334 0 0 0-1.334-1.334" style="color:#000;fill:#fff;fill-opacity:1;stroke:none;stroke-linecap:round;stroke-linejoin:round;stroke-opacity:1;-inkscape-stroke:none" transform="translate(2.25 2.737)scale(.78125)"/>
</svg>
