<svg xmlns="http://www.w3.org/2000/svg" width="64" height="64">
    <rect width="64" height="64" rx="15" ry="15" style="fill:#e52b50;fill-opacity:1"/>
    <path d="M42.678 21.367c1.335 1.329 2.402 2.924 3.203 4.519C48.818 32 47.883 39.709 42.678 44.76L28.396 59.115c-6.54 6.513-17.084 6.513-23.49 0-6.541-6.513-6.541-17.013 0-23.393L15.048 25.62c-1.201 3.987-1.068 8.24.4 12.096l-4.27 4.253c-2.937 2.924-2.937 7.842 0 10.9 3.07 3.056 7.874 3.056 10.944 0l14.282-14.223a7.74 7.74 0 0 0 2.269-5.45 7.74 7.74 0 0 0-2.27-5.45 7.8 7.8 0 0 0-5.472-2.259l7.208-7.177c1.601.664 3.07 1.727 4.538 3.057" style="fill:#fff;fill-opacity:1;stroke-width:.127472" transform="translate(8.265 7.93)scale(.75044)"/>
    <path d="M21.322 42.633c-1.335-1.329-2.402-2.924-3.203-4.519C15.182 32 16.117 24.291 21.322 19.24L35.604 4.885c6.54-6.513 17.084-6.513 23.49 0 6.541 6.513 6.541 17.013 0 23.393L48.952 38.38c1.201-3.987 1.068-8.24-.4-12.096l4.27-4.253c2.937-2.924 2.937-7.842 0-10.9-3.07-3.056-7.874-3.056-10.944 0L27.729 25.488a7.74 7.74 0 0 0-2.27 5.45c0 1.994.802 3.987 2.27 5.45a7.8 7.8 0 0 0 5.472 2.259l-7.207 7.177c-1.735-.797-3.204-1.86-4.672-3.19" style="fill:#fff;fill-opacity:1;stroke-width:.127472" transform="translate(8.265 7.93)scale(.75044)"/>
</svg>
