<?xml version="1.0" encoding="UTF-8" standalone="no"?>
<!-- Generator: Adobe Illustrator 19.0.0, SVG Export Plug-In . SVG Version: 6.00 Build 0)  -->

<svg
   version="1.1"
   id="Layer_1"
   x="0px"
   y="0px"
   viewBox="0 0 63.999999 63.999999"
   xml:space="preserve"
   sodipodi:docname="link.svg"
   width="64"
   height="64"
   inkscape:version="1.3.2 (091e20e, 2023-11-25)"
   xmlns:inkscape="http://www.inkscape.org/namespaces/inkscape"
   xmlns:sodipodi="http://sodipodi.sourceforge.net/DTD/sodipodi-0.dtd"
   xmlns="http://www.w3.org/2000/svg"
   xmlns:svg="http://www.w3.org/2000/svg"><defs
   id="defs16" /><sodipodi:namedview
   id="namedview16"
   pagecolor="#ffffff"
   bordercolor="#000000"
   borderopacity="0.25"
   inkscape:showpageshadow="2"
   inkscape:pageopacity="0.0"
   inkscape:pagecheckerboard="0"
   inkscape:deskcolor="#d1d1d1"
   inkscape:zoom="1.3475964"
   inkscape:cx="250.81694"
   inkscape:cy="251.55901"
   inkscape:window-width="1392"
   inkscape:window-height="997"
   inkscape:window-x="1826"
   inkscape:window-y="25"
   inkscape:window-maximized="0"
   inkscape:current-layer="Layer_1" />
<path
   style="fill:#E52B50;stroke-width:0.127472"
   d="m 42.677822,21.366534 c 1.334728,1.329184 2.402485,2.924229 3.203398,4.519274 C 48.817647,32 47.883248,39.709237 42.677822,44.760108 L 28.396273,59.115261 c -6.540153,6.512985 -17.08449,6.512985 -23.4911579,0 -6.5401535,-6.512985 -6.5401535,-17.013519 0,-23.393573 L 15.048995,25.619946 c -1.201242,3.98755 -1.067756,8.240961 0.400457,12.09558 l -4.271155,4.253412 c -2.9364263,2.924228 -2.9364263,7.842168 0,10.899327 3.069913,3.05716 7.874882,3.05716 10.944794,0 L 36.40464,38.646043 c 1.468213,-1.462114 2.268999,-3.455825 2.268999,-5.449664 0,-1.993838 -0.800786,-3.987549 -2.268999,-5.449664 -1.468213,-1.462114 -3.470241,-2.259573 -5.472397,-2.259573 l 7.207454,-7.177513 c 1.601699,0.664401 3.069912,1.727722 4.538125,3.056905 z"
   id="path1" />
<path
   style="fill:#E52B50;stroke-width:0.127472"
   d="M 21.322178,42.633466 C 19.98745,41.304282 18.919693,39.709237 18.11878,38.114192 15.182353,32 16.116752,24.290763 21.322178,19.239765 L 35.603727,4.8847388 c 6.540153,-6.5129851 17.08449,-6.5129851 23.491158,0 6.540153,6.5129852 6.540153,17.0135192 0,23.3935732 l -10.14388,10.101742 c 1.201242,-3.98755 1.067756,-8.240961 -0.400457,-12.09558 l 4.271155,-4.253412 c 2.936426,-2.924228 2.936426,-7.842168 0,-10.899327 -3.069913,-3.05716 -7.874882,-3.05716 -10.944794,0 l -14.148064,14.35528 c -1.468213,1.462114 -2.268998,3.455825 -2.268998,5.449664 0,1.993838 0.800785,3.98755 2.268998,5.449664 1.468214,1.462114 3.470242,2.259573 5.472397,2.259573 l -7.207453,7.177513 c -1.735185,-0.797459 -3.203398,-1.86078 -4.671611,-3.189963 z"
   id="path2" />
<g
   id="g2"
   transform="matrix(0.12773737,0,0,0.12720674,-0.13348555,2.5e-8)">
</g>
<g
   id="g3"
   transform="matrix(0.12773737,0,0,0.12720674,-0.13348555,2.5e-8)">
</g>
<g
   id="g4"
   transform="matrix(0.12773737,0,0,0.12720674,-0.13348555,2.5e-8)">
</g>
<g
   id="g5"
   transform="matrix(0.12773737,0,0,0.12720674,-0.13348555,2.5e-8)">
</g>
<g
   id="g6"
   transform="matrix(0.12773737,0,0,0.12720674,-0.13348555,2.5e-8)">
</g>
<g
   id="g7"
   transform="matrix(0.12773737,0,0,0.12720674,-0.13348555,2.5e-8)">
</g>
<g
   id="g8"
   transform="matrix(0.12773737,0,0,0.12720674,-0.13348555,2.5e-8)">
</g>
<g
   id="g9"
   transform="matrix(0.12773737,0,0,0.12720674,-0.13348555,2.5e-8)">
</g>
<g
   id="g10"
   transform="matrix(0.12773737,0,0,0.12720674,-0.13348555,2.5e-8)">
</g>
<g
   id="g11"
   transform="matrix(0.12773737,0,0,0.12720674,-0.13348555,2.5e-8)">
</g>
<g
   id="g12"
   transform="matrix(0.12773737,0,0,0.12720674,-0.13348555,2.5e-8)">
</g>
<g
   id="g13"
   transform="matrix(0.12773737,0,0,0.12720674,-0.13348555,2.5e-8)">
</g>
<g
   id="g14"
   transform="matrix(0.12773737,0,0,0.12720674,-0.13348555,2.5e-8)">
</g>
<g
   id="g15"
   transform="matrix(0.12773737,0,0,0.12720674,-0.13348555,2.5e-8)">
</g>
<g
   id="g16"
   transform="matrix(0.12773737,0,0,0.12720674,-0.13348555,2.5e-8)">
</g>
</svg>
