<?xml version="1.0" encoding="UTF-8" standalone="no"?>
<svg
   viewBox="0 0 64 64"
   id="svg4205"
   version="1.1"
   inkscape:version="1.3.2 (091e20e, 2023-11-25)"
   sodipodi:docname="rss.svg"
   width="64"
   height="64"
   style="fill:#ffff00"
   xmlns:inkscape="http://www.inkscape.org/namespaces/inkscape"
   xmlns:sodipodi="http://sodipodi.sourceforge.net/DTD/sodipodi-0.dtd"
   xmlns="http://www.w3.org/2000/svg"
   xmlns:svg="http://www.w3.org/2000/svg"
   xmlns:rdf="http://www.w3.org/1999/02/22-rdf-syntax-ns#"
   xmlns:cc="http://creativecommons.org/ns#"
   xmlns:dc="http://purl.org/dc/elements/1.1/">
  <metadata
     id="metadata4213">
    <rdf:RDF>
      <cc:Work
         rdf:about="">
        <dc:format>image/svg+xml</dc:format>
        <dc:type
           rdf:resource="http://purl.org/dc/dcmitype/StillImage" />
      </cc:Work>
    </rdf:RDF>
  </metadata>
  <defs
     id="defs4211" />
  <sodipodi:namedview
     pagecolor="#ffffff"
     bordercolor="#666666"
     borderopacity="1"
     objecttolerance="10"
     gridtolerance="10"
     guidetolerance="10"
     inkscape:pageopacity="0"
     inkscape:pageshadow="2"
     inkscape:window-width="1392"
     inkscape:window-height="997"
     id="namedview4209"
     showgrid="false"
     fit-margin-top="0"
     fit-margin-left="0"
     fit-margin-right="0"
     fit-margin-bottom="0"
     inkscape:zoom="10.625"
     inkscape:cx="32"
     inkscape:cy="32"
     inkscape:window-x="1829"
     inkscape:window-y="25"
     inkscape:window-maximized="0"
     inkscape:current-layer="svg4205"
     inkscape:showpageshadow="2"
     inkscape:pagecheckerboard="0"
     inkscape:deskcolor="#d1d1d1" />
  <rect
     style="opacity:1;fill:#ff6600;fill-opacity:1;stroke:none;stroke-width:0.125;stroke-linecap:square;stroke-miterlimit:4;stroke-dasharray:none;stroke-dashoffset:0;stroke-opacity:1"
     id="rect4215"
     width="64"
     height="64"
     x="0"
     y="0"
     rx="9.375"
     ry="9.375" />
  <path
     d="m 21.938017,48.961297 c 0,3.750363 -3.040243,6.790608 -6.790606,6.790608 -3.750363,0 -6.7905015,-3.040245 -6.7905015,-6.790608 0,-3.750362 3.0402445,-6.790606 6.7906075,-6.790606 3.750363,0 6.7905,3.04035 6.7905,6.790606 z m 18.626162,5.010169 C 39.67836,37.578407 26.547902,24.431409 10.137348,23.544636 9.1687158,23.492254 8.3569095,24.270554 8.3569095,25.240564 v 5.097011 c 0,0.892287 0.6881691,1.640579 1.5785475,1.698474 11.85814,0.772361 21.363252,10.253826 22.137203,22.137202 0.058,0.890379 0.806292,1.578548 1.698474,1.578548 h 5.097011 c 0.970116,1.06e-4 1.748415,-0.8117 1.696034,-1.780333 z m 15.295486,0.03054 C 54.969605,29.20883 35.021077,9.1435565 10.10681,8.2491488 9.1493114,8.2147933 8.3569095,8.9883208 8.3569095,9.9463498 v 5.0969052 c 0,0.914554 0.7247513,1.658922 1.6385635,1.696459 20.271723,0.831211 36.542629,17.105191 37.373733,37.373733 0.03743,0.913813 0.781799,1.638564 1.696459,1.638564 h 5.096905 c 0.957924,-1.06e-4 1.731451,-0.792509 1.697095,-1.750007 z"
     id="path4207"
     inkscape:connector-curvature="0"
     style="fill:#ffffff;stroke-width:0.125" />
</svg>
