<svg xmlns="http://www.w3.org/2000/svg" width="64" height="64" style="fill:#ff0">
    <rect width="64" height="64" rx="9.375" ry="9.375" style="opacity:1;fill:#f60;fill-opacity:1;stroke:none;stroke-width:.125;stroke-linecap:square;stroke-miterlimit:4;stroke-dasharray:none;stroke-dashoffset:0;stroke-opacity:1"/>
    <path d="M21.938 48.961a6.79 6.79 0 1 1-13.581 0 6.79 6.79 0 0 1 13.581 0m18.626 5.01c-.886-16.393-14.016-29.54-30.427-30.426a1.695 1.695 0 0 0-1.78 1.696v5.097c0 .892.688 1.64 1.578 1.698 11.859.772 21.364 10.254 22.138 22.137.058.89.806 1.579 1.698 1.579h5.097c.97 0 1.749-.812 1.696-1.78m15.296.031C54.97 29.209 35.02 9.144 10.107 8.249a1.695 1.695 0 0 0-1.75 1.697v5.097c0 .915.725 1.66 1.638 1.697 20.272.83 36.543 17.105 37.374 37.373a1.7 1.7 0 0 0 1.697 1.639h5.097c.957 0 1.731-.792 1.697-1.75" style="fill:#fff;stroke-width:.125"/>
</svg>
