<?xml version="1.0" encoding="UTF-8" standalone="no"?>
<!-- Uploaded to: SVG Repo, www.svgrepo.com, Generator: SVG Repo Mixer Tools -->

<svg
   width="64.000504"
   height="64.000595"
   viewBox="0 0 10.240081 10.240095"
   aria-hidden="true"
   role="img"
   class="iconify iconify--noto"
   preserveAspectRatio="xMidYMid"
   version="1.1"
   id="svg4"
   sodipodi:docname="favicon.svg"
   inkscape:version="1.3.2 (091e20e, 2023-11-25)"
   xmlns:inkscape="http://www.inkscape.org/namespaces/inkscape"
   xmlns:sodipodi="http://sodipodi.sourceforge.net/DTD/sodipodi-0.dtd"
   xmlns="http://www.w3.org/2000/svg"
   xmlns:svg="http://www.w3.org/2000/svg">
  <defs
     id="defs4" />
  <sodipodi:namedview
     id="namedview4"
     pagecolor="#ffffff"
     bordercolor="#000000"
     borderopacity="0.25"
     inkscape:showpageshadow="2"
     inkscape:pageopacity="0.0"
     inkscape:pagecheckerboard="0"
     inkscape:deskcolor="#d1d1d1"
     inkscape:zoom="0.8475"
     inkscape:cx="348.0826"
     inkscape:cy="349.26254"
     inkscape:window-width="1392"
     inkscape:window-height="997"
     inkscape:window-x="1961"
     inkscape:window-y="25"
     inkscape:window-maximized="0"
     inkscape:current-layer="svg4" />
  <path
     d="m 9.278567,4.479245 c -0.258707,0 -1.824706,0.12101 -3.310891,0.290607 -0.0083,0 -0.01651,-0.0083 -0.0083,-0.0165 C 7.129977,3.82561 8.325347,2.800694 8.503322,2.622846 9.076696,2.049882 8.874868,1.6786023 8.70515,1.5090051 8.422591,1.2266488 8.010679,1.2908207 7.590511,1.7106882 7.412535,1.888536 6.386884,3.082133 5.458477,4.252812 c -0.0083,0.0083 -0.01651,0 -0.01651,-0.0083 C 5.611685,2.759391 5.732782,1.1945139 5.732782,0.9359928 5.732782,0.1210098 5.329127,0 5.086934,0 4.844741,0 4.441085,0.1219266 4.441085,0.9369096 c 0,0.258521 0.121097,1.8233984 0.290816,3.3085194 0,0.0083 -0.0083,0.0165 -0.01651,0.0083 C 3.810873,3.099549 2.786139,1.9050354 2.608163,1.7198536 2.179738,1.2917355 1.776083,1.2358142 1.4935245,1.5181705 1.3238058,1.6877677 1.2751837,1.913286 1.3641713,2.155306 1.4210503,2.308402 1.53389,2.469748 1.695352,2.631094 1.873327,2.808942 3.06778,3.833859 4.239298,4.761601 c 0.0083,0.0083 0,0.0165 -0.0083,0.0165 C 2.744856,4.608505 1.1788568,4.487496 0.9201505,4.487496 0.11284,4.479245 0,4.882611 0,5.124631 0,5.36665 0.1210966,5.770017 0.9366637,5.770017 c 0.2587063,0 1.8247053,-0.12101 3.3108903,-0.290607 0.0083,0 0.01651,0.0083 0.0083,0.0165 C 3.06874,6.416318 1.881627,7.441235 1.695395,7.618166 1.533933,7.787763 1.4128364,7.940859 1.3642143,8.093955 1.2752263,8.327724 1.3238483,8.562409 1.4935675,8.73109 c 0.11284,0.112759 0.2504495,0.177848 0.4036555,0.177848 0.218341,0 0.460534,-0.129261 0.710983,-0.379531 0.177976,-0.177848 1.203627,-1.371445 2.132034,-2.542124 0.0083,-0.0083 0.01651,0 0.01651,0.0083 -0.169718,1.485121 -0.290815,3.049998 -0.290815,3.308519 0,0.814983 0.403655,0.935993 0.645848,0.935993 0.242194,0 0.645849,-0.12101 0.645849,-0.935993 0,-0.258521 -0.121097,-1.823398 -0.290815,-3.308519 0,-0.0083 0.0083,-0.0165 0.01651,-0.0083 0.928407,1.169762 1.954058,2.364276 2.132033,2.542124 0.25045,0.25027 0.492643,0.379531 0.710984,0.379531 0.153206,0 0.290815,-0.06417 0.403655,-0.177848 C 8.899718,8.561493 9.101546,8.190213 8.528172,7.617249 8.350196,7.439401 7.155744,6.414485 5.984226,5.486743 c -0.0083,-0.0083 0,-0.0165 0.0083,-0.0165 1.486185,0.169597 3.052184,0.290607 3.31089,0.290607 0.815567,0 0.936664,-0.403366 0.936664,-0.645386 0,-0.242019 -0.145866,-0.636218 -0.961433,-0.636218 z"
     fill="#7cb342"
     id="path1"
     style="stroke-width:0.091707" />
  <path
     d="M 5.331919,0.3905788 C 5.277789,0.258568 5.081469,0.2549011 4.893403,0.3548258 4.742032,0.4354988 4.602587,0.6078464 4.703501,0.7398571 4.808085,0.8764516 4.953951,0.6967701 5.088808,0.6142636 5.223666,0.5317566 5.382376,0.5125053 5.331919,0.3905788 Z"
     opacity="0.3"
     fill="#ffffff"
     id="path2"
     style="stroke-width:0.091707" />
  <path
     d="M 2.16506,1.6455976 C 2.11093,1.5135868 1.91461,1.5099199 1.726544,1.6098447 1.5751729,1.6905179 1.4357284,1.8628653 1.5366422,1.994876 1.641226,2.13147 1.787092,1.951786 1.921949,1.8692825 2.057724,1.7876925 2.215517,1.7675242 2.16506,1.6455976 Z"
     opacity="0.3"
     fill="#ffffff"
     id="path3"
     style="stroke-width:0.091707" />
  <path
     d="M 8.507952,1.6180953 C 8.453822,1.4860846 8.257502,1.4824176 8.069436,1.5823423 7.918065,1.6630153 7.77862,1.8353629 7.879534,1.967374 7.984118,2.103968 8.129984,1.924284 8.264841,1.8417801 8.401534,1.7601901 8.558409,1.7400218 8.507952,1.6180953 Z"
     opacity="0.3"
     fill="#ffffff"
     id="path4"
     style="stroke-width:0.091707" />
</svg>
